<?xml version="1.0" standalone="no"?>
<!DOCTYPE svg PUBLIC "-//W3C//DTD SVG 20010904//EN"
 "http://www.w3.org/TR/2001/REC-SVG-20010904/DTD/svg10.dtd">
<svg version="1.0" xmlns="http://www.w3.org/2000/svg"
 width="600.000000pt" height="117.000000pt" viewBox="0 0 600.000000 117.000000"
 preserveAspectRatio="xMidYMid meet">
<g transform="translate(0.000000,117.000000) scale(0.100000,-0.100000)"
fill="#000000" stroke="none">
<path d="M2667 989 c7 -7 15 -10 18 -7 3 3 -2 9 -12 12 -14 6 -15 5 -6 -5z"/>
<path d="M471 975 c-215 -61 -361 -283 -322 -492 32 -173 150 -296 319 -332
121 -25 265 -5 344 49 67 47 88 72 88 108 l0 35 -55 -52 c-74 -70 -129 -93
-219 -93 -86 0 -130 17 -178 70 -63 69 -82 136 -82 292 -1 118 2 143 22 196
43 113 131 177 242 178 113 0 202 -65 246 -180 30 -78 39 -56 39 96 0 146 -6
164 -37 110 -9 -17 -23 -30 -31 -30 -7 0 -47 12 -88 26 -93 33 -211 40 -288
19z m33 -40 c-4 -8 -11 -15 -18 -15 -19 0 -76 -57 -91 -92 -8 -18 -15 -28 -15
-23 -1 6 -10 -17 -21 -50 -38 -116 -34 -311 8 -414 28 -67 101 -150 133 -151
11 0 11 -3 -3 -11 -14 -8 -22 -8 -30 0 -6 6 -20 11 -32 11 -11 0 -32 7 -47 15
-16 8 -39 21 -52 28 -36 20 -104 97 -126 142 -50 106 -50 247 1 350 27 55 109
160 109 140 0 -5 9 1 21 13 11 12 25 19 31 16 6 -4 8 -3 4 4 -6 10 30 28 47
24 4 -1 7 2 7 7 0 9 24 17 62 20 12 1 15 -4 12 -14z m374 -75 l-3 -42 -25 28
c-14 16 -17 22 -7 15 15 -12 17 -12 11 3 -3 9 -10 17 -15 17 -5 1 -13 2 -18 3
-5 0 -13 5 -18 10 -5 5 -3 6 5 2 6 -4 12 -3 12 3 0 6 6 8 14 5 8 -3 17 0 21 6
13 22 26 -6 23 -50z m-331 -686 c-3 -3 -12 -4 -19 -1 -8 3 -5 6 6 6 11 1 17
-2 13 -5z"/>
<path d="M250 786 c0 -2 7 -7 16 -10 8 -3 12 -2 9 4 -6 10 -25 14 -25 6z"/>
<path d="M2327 980 c-125 -32 -239 -125 -298 -245 -33 -67 -34 -74 -34 -185 0
-110 2 -119 32 -180 78 -158 229 -238 433 -228 69 3 97 10 150 35 80 39 125
85 135 137 l6 39 -50 -52 c-70 -72 -144 -104 -236 -104 -164 1 -247 109 -262
338 -12 204 64 350 203 391 131 38 275 -43 316 -178 6 -21 17 -38 25 -38 10 0
13 30 13 140 0 118 -2 140 -15 140 -8 0 -15 -6 -15 -13 0 -8 -9 -22 -20 -32
-19 -17 -23 -17 -102 10 -91 31 -214 41 -281 25z m35 -28 c-6 -5 -19 -17 -28
-28 -8 -10 -12 -12 -8 -4 3 8 -18 -10 -47 -40 -75 -77 -103 -162 -101 -310 0
-58 3 -112 5 -120 2 -8 7 -32 12 -53 4 -20 11 -40 16 -43 5 -3 7 -10 3 -15 -3
-5 7 -27 23 -47 15 -20 27 -38 25 -40 -4 -5 42 -40 75 -57 l28 -15 -31 0 c-17
0 -47 7 -67 15 -19 8 -37 11 -41 8 -3 -4 -6 0 -6 7 0 7 -3 11 -6 7 -8 -8 -27
7 -93 74 -39 39 -63 74 -80 117 -21 55 -23 72 -19 166 5 94 9 110 37 159 17
30 46 70 64 88 17 18 25 29 17 24 -14 -9 -2 2 38 35 6 6 12 8 12 4 0 -4 8 0
18 8 27 23 124 65 157 67 6 0 4 -3 -3 -7z m327 -53 c-11 -7 -10 -9 3 -9 9 0
19 6 21 13 3 6 6 -8 6 -32 l1 -45 -25 34 c-14 19 -30 37 -36 41 -6 3 1 7 16 7
19 0 23 -3 14 -9z"/>
<path d="M1315 966 c-172 -55 -285 -213 -285 -401 0 -122 43 -226 127 -311 84
-84 187 -119 327 -111 50 3 107 10 126 16 118 36 223 146 261 272 32 105 25
233 -18 320 -53 107 -139 182 -243 213 -65 19 -237 20 -295 2z m237 -42 c79
-41 119 -153 121 -339 3 -248 -56 -379 -182 -400 -91 -15 -171 39 -213 144
-20 50 -23 73 -23 226 0 140 3 180 19 228 45 136 166 198 278 141z m-231 -4
c6 0 7 5 3 12 -5 7 -3 8 6 3 10 -6 9 -11 -5 -21 -14 -10 -22 -11 -32 -2 -10 8
-12 7 -8 -5 4 -8 -2 -35 -13 -59 -35 -81 -41 -103 -50 -189 -15 -139 9 -318
51 -382 9 -14 17 -31 17 -36 0 -5 14 -21 31 -35 17 -14 29 -26 27 -26 -2 0
-27 9 -56 19 -55 20 -81 36 -95 59 -5 7 -14 9 -20 6 -7 -4 -9 -4 -5 0 4 5 -10
26 -30 47 -20 22 -37 45 -39 52 -1 7 -12 39 -24 72 -17 49 -20 75 -16 150 3
49 7 97 9 105 6 23 39 83 56 103 8 9 12 17 8 17 -4 0 10 16 31 35 21 19 42 35
46 35 5 0 5 5 2 10 -4 6 -3 10 2 9 25 -4 44 2 37 14 -4 6 -4 9 1 5 4 -4 17 -1
29 8 12 8 22 10 24 4 2 -5 8 -10 13 -10z m309 6 c8 0 17 -3 20 -6 11 -11 70
-50 75 -50 12 0 64 -58 58 -64 -4 -4 -8 -14 -9 -22 -2 -14 -1 -14 15 0 16 15
19 11 46 -65 25 -74 27 -89 22 -177 -4 -69 -12 -112 -27 -147 -26 -58 -80
-134 -96 -135 -6 0 -19 -9 -29 -20 -10 -11 -24 -20 -32 -20 -7 0 -13 -5 -13
-10 0 -6 -3 -9 -7 -9 -21 3 -44 -2 -39 -9 3 -5 -1 -9 -9 -9 -8 0 -11 5 -7 11
4 6 20 30 36 54 48 70 66 157 66 317 0 97 -5 158 -16 195 -8 30 -16 62 -18 71
-1 9 -9 24 -18 33 -9 9 -19 24 -23 35 -3 10 -15 23 -28 30 -17 9 -18 10 -2 5
11 -3 27 -7 35 -8z"/>
<path d="M3145 963 c-294 -106 -368 -501 -135 -716 76 -71 144 -98 265 -104
151 -9 264 33 351 129 78 87 122 236 104 355 -22 153 -97 256 -230 320 -49 24
-69 27 -180 30 -101 3 -135 0 -175 -14z m14 -50 c-40 -42 -79 -127 -87 -188
-3 -22 -6 -101 -6 -175 1 -110 5 -149 23 -210 12 -41 30 -82 39 -91 9 -8 28
-28 42 -43 l25 -28 -30 8 c-39 9 -115 53 -122 70 -3 8 -9 12 -13 9 -4 -2 -16
7 -26 21 -11 15 -30 39 -42 55 -13 16 -20 29 -16 29 4 0 3 5 -4 12 -7 7 -12
22 -12 35 0 13 -5 23 -10 23 -6 0 -9 3 -9 8 1 4 0 9 -1 12 -9 23 -9 150 -1
191 24 112 114 231 196 260 6 2 26 11 45 21 48 24 49 23 9 -19z m194 26 c109
-30 167 -159 167 -374 0 -271 -99 -415 -257 -376 -115 29 -173 155 -173 376 0
216 61 349 171 375 47 11 50 11 92 -1z m150 -22 c4 3 7 2 7 -3 0 -6 17 -20 38
-31 70 -40 139 -141 148 -218 15 -125 -5 -265 -41 -295 -8 -7 -12 -16 -10 -21
8 -12 -92 -112 -104 -105 -7 5 -8 1 -4 -10 4 -11 2 -15 -4 -11 -6 4 -16 1 -22
-7 -6 -7 -24 -16 -39 -19 -15 -3 -34 -9 -44 -12 -9 -4 1 12 22 34 51 53 80
134 93 255 14 126 -2 285 -34 348 -12 24 -21 45 -20 46 2 2 -9 16 -23 31 -30
31 -25 47 8 25 13 -8 26 -11 29 -7z"/>
<path d="M3180 831 c0 -6 4 -13 10 -16 6 -3 7 1 4 9 -7 18 -14 21 -14 7z"/>
<path d="M5273 966 c-109 -35 -215 -133 -254 -234 -31 -80 -37 -204 -14 -288
52 -194 206 -304 423 -304 176 0 305 82 381 240 35 73 36 79 36 185 -1 90 -5
120 -24 168 -32 81 -115 168 -199 209 -63 31 -74 33 -187 35 -80 2 -134 -2
-162 -11z m249 -52 c25 -16 46 -43 70 -91 33 -67 33 -69 37 -229 2 -130 0
-174 -14 -220 -37 -132 -97 -189 -195 -188 -98 0 -151 48 -191 174 -28 87 -31
294 -6 390 45 170 177 242 299 164z m-244 3 c-34 -33 -57 -63 -39 -52 7 4 4
-5 -8 -21 -12 -16 -23 -38 -26 -49 -3 -11 -10 -42 -16 -69 -7 -29 -9 -105 -7
-195 4 -126 8 -155 30 -211 14 -35 40 -81 57 -102 18 -21 28 -38 22 -38 -5 0
-13 5 -16 11 -4 6 -13 8 -21 5 -8 -3 -14 -1 -14 5 0 6 -4 7 -10 4 -5 -3 -10
-2 -10 2 0 5 -22 22 -49 38 -28 16 -48 31 -46 35 2 3 -5 13 -16 20 -10 8 -19
20 -19 27 0 7 -4 13 -9 13 -5 0 -19 26 -32 58 -21 49 -24 74 -24 172 0 100 3
120 23 158 12 23 19 42 16 42 -4 0 3 9 16 20 13 11 21 20 18 20 -3 0 9 16 28
35 18 19 36 35 40 35 4 0 19 10 32 23 14 12 21 15 17 7 -6 -9 1 -7 19 6 15 11
37 21 48 21 19 2 18 1 -4 -20z m327 3 c-6 11 -3 10 12 -2 11 -10 23 -18 26
-18 4 0 16 -8 26 -17 10 -10 32 -30 47 -44 33 -29 58 -59 63 -74 2 -5 8 -21
14 -35 16 -40 18 -51 24 -139 4 -63 1 -98 -13 -145 -31 -107 -132 -227 -202
-241 -11 -2 -31 -9 -44 -16 -19 -10 -17 -5 12 32 45 56 62 92 78 164 2 11 6
88 8 170 2 121 0 163 -15 215 -19 70 -58 143 -71 135 -5 -3 -7 3 -5 12 2 10 4
20 4 22 1 2 11 -4 23 -15 13 -12 18 -13 13 -4z"/>
<path d="M3800 960 c0 -5 16 -10 35 -10 25 0 44 -8 61 -25 l25 -25 -3 -334
c-3 -376 -2 -370 -80 -382 -79 -13 -34 -24 97 -24 74 0 138 0 142 -1 4 0 9 4
11 10 2 6 -8 11 -22 11 -46 0 -76 19 -92 56 -13 30 -15 88 -13 345 2 169 7
306 11 303 4 -3 8 -10 8 -17 0 -24 304 -717 311 -710 8 9 270 627 300 708 18
50 18 49 16 -298 l-2 -349 -24 -19 c-13 -10 -38 -19 -57 -19 -21 0 -34 -5 -34
-12 0 -10 48 -12 215 -10 129 2 215 7 215 12 0 6 -16 10 -35 10 -25 0 -44 8
-60 25 l-25 24 0 336 0 336 25 24 c16 17 35 25 60 25 19 0 35 5 35 10 0 6 -63
10 -168 10 l-168 0 -88 -217 c-49 -120 -99 -239 -111 -266 l-21 -49 -113 266
-113 266 -169 0 c-106 0 -169 -4 -169 -10z m314 -23 c9 -7 18 -19 20 -27 1 -8
12 -34 24 -57 12 -23 22 -51 22 -62 0 -11 4 -21 8 -23 7 -3 80 -168 116 -263
6 -16 23 -48 38 -69 21 -30 25 -43 16 -53 -6 -7 -8 -13 -4 -13 4 0 -1 -11 -10
-24 -8 -14 -16 -29 -16 -33 -1 -23 -32 -83 -41 -80 -6 2 -35 57 -63 123 -56
127 -55 126 -109 254 -19 47 -42 99 -50 115 -13 27 -46 102 -50 115 -13 41
-31 61 -52 57 -15 -3 -23 1 -23 9 0 8 -1 17 -2 22 -2 4 31 10 72 13 41 3 78 6
81 7 3 1 13 -4 23 -11z m669 -20 c-10 -29 -10 -675 0 -704 8 -21 5 -22 -77
-25 l-86 -3 7 25 c7 29 9 647 2 673 -3 9 -11 23 -17 29 -29 29 -11 34 100 30
76 -3 79 -4 71 -25z m-834 -694 c-4 -22 2 -33 14 -27 6 4 9 3 4 -1 -7 -9 -47
-15 -47 -8 0 3 5 13 10 24 11 19 21 26 19 12z"/>
<path d="M1800 907 c0 -2 6 -10 14 -16 11 -9 16 -9 22 1 4 7 4 10 -1 6 -4 -4
-14 -3 -22 3 -7 6 -13 9 -13 6z"/>
<path d="M2019 813 c-13 -16 -12 -17 4 -4 9 7 17 15 17 17 0 8 -8 3 -21 -13z"/>
<path d="M831 347 c-8 -10 -7 -14 2 -14 8 0 14 6 14 14 0 7 -1 13 -2 13 -2 0
-8 -6 -14 -13z"/>
<path d="M2566 278 c3 -5 10 -6 15 -3 13 9 11 12 -6 12 -8 0 -12 -4 -9 -9z"/>
<path d="M3640 226 c0 -2 7 -7 16 -10 8 -3 12 -2 9 4 -6 10 -25 14 -25 6z"/>
<path d="M2170 156 c0 -3 9 -10 20 -16 11 -6 20 -8 20 -6 0 3 -9 10 -20 16
-11 6 -20 8 -20 6z"/>
</g>
</svg>
